# xmcd CD database file
#
# Track frame offsets:
#	150
#	16795
#	30157
#	42777
#	54985
#	71480
#	83880
#	96587
#	111850
#	124235
#	143685
#	155062
#	175267
#	192375
#	214710
#	227037
#	246482
#	262680
#	280240
#	292127
#	305645
#	319037
#
# Disc length: 4421 seconds
#
# Revision: 0
# Processed by: cddbd v1.5.2PL0 Copyright (c) Steve Scherf et al.
# Submitted via: CDex 1.70beta2
#
DISCID=3c114316
DTITLE=ChartBreakers - ChartBreakers CGC-532
DYEAR=1990
DGENRE=Country
TTITLE0=Ronnie Milsap - Am I Losong You
TTITLE1=Tanya Tucker - Delta Dawn
TTITLE2=Jerry Reed - East Bound And Down
TTITLE3=George Strait - Ace In The Hole
TTITLE4=Willie Nelson - Blue Skies
TTITLE5=John Conlee - Common Man
TTITLE6=Janie Fricke - He's A Heartache (Lookin' for A Place To Happen)
TTITLE7=George Jones - I Always Get Lucky With You
TTITLE8=Shelly West - José Cuervo
TTITLE9=Merle Haggard - Are The Good Times Really Over
TTITLE10=Conway Twitty - Desperado Love
TTITLE11=Marty Robbins - El Paso
TTITLE12=Lorrie Morgan - Dear Me
TTITLE13=Dan Seals - Everything That Glitters
TTITLE14=George Strait - Fool Hearted Memory
TTITLE15=Don Williams - Good Ole Boys Like Me
TTITLE16=Ronnie Milsap - Don't You Know How Much Love You
TTITLE17=Don Williams - Heartbeat In The Darkness
TTITLE18=Conway Twitty - I Am The Dreamer
TTITLE19=George Strait - Let's Fall To Pieces Together
TTITLE20=Waylon Jennings - Are You Sure Hank Done It This Way
TTITLE21=Bobby Dare - Detroit City
EXTD=YEAR: 1990
EXTT0=
EXTT1=
EXTT2=
EXTT3=
EXTT4=
EXTT5=
EXTT6=
EXTT7=
EXTT8=
EXTT9=
EXTT10=
EXTT11=
EXTT12=
EXTT13=
EXTT14=
EXTT15=
EXTT16=
EXTT17=
EXTT18=
EXTT19=
EXTT20=
EXTT21=
PLAYORDER=
